# xmcd
#
# Track frame offsets: 
#        150
#        18934
#        46623
#        62685
#        71727
#        80889
#        103187
#        132151
#        149408
#        161650
#        179931
#
# Disc length: 2590 seconds
#
# Revision: 0
# Processed by: cddbd v1.5.2PL0 Copyright (c) Steve Scherf et al.
# Submitted via: ExactAudioCopy v0.99pb4
#
DISCID=a10a1c0b
DTITLE=Kai Mwaafrika - The Singles EP
DYEAR=2011
DGENRE=World
TTITLE0=Hurt So
TTITLE1=Tabitha Stevens Is Dead
TTITLE2=Love Buzz
TTITLE3=Osirus
TTITLE4=Asli Maat Jun Na
TTITLE5=Kai Mwaafrika Roadside Slow Drag
TTITLE6=Fau Outer Space
TTITLE7=Telepathy
TTITLE8=Love Buzz (Broken Beat Edit)
TTITLE9=Come What May
TTITLE10=Single Black Mamma (A Cappella)
EXTD=
EXTT0=
EXTT1=
EXTT2=
EXTT3=
EXTT4=
EXTT5=
EXTT6=
EXTT7=
EXTT8=
EXTT9=
EXTT10=
PLAYORDER=
